<?xml version="1.0" standalone="no"?>
<!DOCTYPE svg PUBLIC "-//W3C//DTD SVG 20010904//EN"
 "http://www.w3.org/TR/2001/REC-SVG-20010904/DTD/svg10.dtd">
<svg version="1.0" xmlns="http://www.w3.org/2000/svg"
 width="816.000000pt" height="230.000000pt" viewBox="0 0 816.000000 230.000000"
 preserveAspectRatio="xMidYMid meet">

<g transform="translate(0.000000,230.000000) scale(0.100000,-0.100000)"
fill="#000000" stroke="none">
<path d="M197 2023 c-4 -3 -7 -55 -7 -115 l0 -108 1600 0 1601 0 -3 113 -3
112 -1591 3 c-875 1 -1593 -1 -1597 -5z"/>
<path d="M742 1630 c-146 -20 -258 -76 -362 -180 -129 -128 -190 -280 -190
-470 0 -341 231 -601 568 -639 230 -25 409 34 562 188 127 128 180 256 180
443 0 128 -13 184 -67 297 -121 252 -404 400 -691 361z m239 -260 c128 -48
219 -155 248 -288 60 -283 -137 -529 -408 -510 -139 10 -258 93 -323 226 -32
64 -33 71 -33 187 0 120 0 122 38 197 42 86 93 137 174 175 98 45 206 50 304
13z"/>
<path d="M2252 1380 c2 -121 0 -220 -3 -220 -3 0 -14 9 -25 21 -10 12 -41 33
-69 47 -45 24 -61 27 -160 27 -100 0 -115 -3 -168 -29 -222 -108 -311 -406
-197 -663 27 -62 115 -150 185 -186 52 -27 73 -31 157 -35 118 -5 176 12 242
69 l46 41 0 -46 0 -46 120 0 120 0 0 620 0 620 -125 0 -126 0 3 -220z m-129
-343 c47 -20 102 -86 122 -147 22 -66 16 -170 -14 -228 -49 -96 -156 -143
-252 -110 -56 19 -88 49 -119 112 -67 133 -20 315 94 367 48 22 124 24 169 6z"/>
<path d="M3240 1376 l0 -224 -32 31 c-60 55 -111 72 -223 72 -88 0 -107 -3
-157 -27 -110 -51 -200 -164 -234 -292 -18 -66 -18 -216 0 -282 21 -78 74
-171 125 -216 74 -65 140 -91 247 -96 110 -5 171 12 232 63 22 19 42 35 44 35
2 0 2 -18 0 -40 l-4 -40 126 0 126 0 0 620 0 620 -125 0 -125 0 0 -224z m-112
-345 c79 -40 125 -125 126 -231 1 -119 -43 -202 -129 -241 -149 -68 -296 47
-297 231 -1 117 42 200 127 244 42 22 127 20 173 -3z"/>
<path d="M4520 1354 l0 -126 -60 4 -60 4 0 -98 0 -98 59 0 59 0 4 -252 c4
-279 8 -301 70 -365 56 -58 117 -77 248 -78 63 0 123 3 133 7 15 6 17 22 17
114 l0 106 -27 -8 c-16 -5 -53 -9 -84 -9 -106 0 -119 32 -119 298 l0 187 115
0 115 0 0 95 0 95 -115 0 -115 0 0 125 0 125 -120 0 -120 0 0 -126z"/>
<path d="M3832 1249 c-59 -11 -159 -67 -188 -104 -56 -74 -71 -182 -35 -260
38 -84 102 -119 312 -170 79 -19 154 -43 168 -53 48 -35 40 -99 -14 -125 -51
-24 -157 -23 -210 3 -40 19 -75 63 -75 94 0 14 -16 16 -111 16 l-112 0 6 -51
c21 -179 224 -288 480 -259 135 16 237 74 281 162 62 125 13 274 -111 333 -21
10 -106 35 -190 55 -192 47 -224 66 -209 126 9 33 74 64 136 64 79 0 160 -52
160 -102 0 -16 11 -18 111 -18 l112 0 -7 43 c-20 128 -110 215 -254 246 -60
13 -186 13 -250 0z"/>
<path d="M5351 1244 c-199 -53 -331 -235 -331 -456 0 -208 125 -376 325 -434
83 -24 230 -22 312 4 194 62 313 227 313 437 0 140 -47 252 -141 340 -96 88
-196 125 -339 124 -47 0 -109 -7 -139 -15z m248 -217 c72 -34 131 -140 131
-237 0 -105 -70 -212 -156 -238 -167 -50 -308 61 -308 243 0 198 161 311 333
232z"/>
<path d="M6475 1247 c-58 -20 -97 -42 -124 -71 -33 -36 -40 -33 -34 14 l6 40
-127 0 -126 0 0 -435 0 -435 125 0 125 0 0 273 c0 244 2 276 19 313 22 48 62
80 119 92 83 19 158 -12 195 -82 21 -39 22 -55 25 -318 l3 -278 120 0 119 0 0
298 c0 326 -6 377 -58 462 -32 52 -97 105 -150 121 -58 17 -191 21 -237 6z"/>
<path d="M7322 1244 c-67 -18 -106 -38 -160 -81 -173 -140 -208 -440 -74 -641
172 -260 626 -244 770 26 18 33 32 66 32 73 0 11 -25 14 -116 14 -108 0 -116
-1 -127 -22 -52 -95 -246 -113 -335 -30 -27 24 -56 78 -66 120 l-6 27 330 0
330 0 0 79 c0 178 -90 332 -236 405 -91 45 -238 58 -342 30z m221 -188 c57
-24 96 -72 113 -141 l6 -25 -206 0 c-135 0 -206 4 -206 10 0 21 31 85 53 109
51 55 167 78 240 47z"/>
</g>
</svg>
